<?xml version="1.0" standalone="no"?>
<!DOCTYPE svg PUBLIC "-//W3C//DTD SVG 20010904//EN"
 "http://www.w3.org/TR/2001/REC-SVG-20010904/DTD/svg10.dtd">
<svg version="1.0" xmlns="http://www.w3.org/2000/svg"
 width="241.000000pt" height="241.000000pt" viewBox="0 0 241.000000 241.000000"
 preserveAspectRatio="xMidYMid meet">

<g transform="translate(0.000000,241.000000) scale(0.100000,-0.100000)"
fill="#000000" stroke="none">
<path d="M1050 2298 c-48 -19 -71 -22 -180 -20 -235 5 -323 -53 -322 -211 0
-62 16 -96 56 -122 20 -13 30 -14 70 -3 41 11 50 10 81 -6 41 -22 44 -33 12
-41 -35 -9 -177 -167 -214 -238 -44 -84 -44 -101 0 -72 17 10 32 12 62 5 36
-8 38 -7 21 6 -19 13 -18 14 15 14 19 0 39 -4 44 -9 6 -4 24 -11 40 -15 19 -4
25 -3 17 2 -11 8 -11 10 2 15 9 4 16 3 16 -2 0 -5 8 -8 17 -7 10 0 22 -9 28
-21 11 -25 25 -30 25 -10 1 6 7 -1 15 -18 7 -16 14 -24 14 -16 1 11 4 11 16 1
12 -10 16 -9 21 5 4 10 1 21 -7 26 -10 6 -8 9 9 9 13 0 20 -4 17 -10 -3 -5 -1
-18 4 -29 9 -16 7 -20 -15 -24 -14 -2 -53 -3 -87 -2 -34 2 -51 1 -37 -3 20 -4
14 -7 -30 -16 -43 -9 -65 -9 -100 2 -27 8 -64 10 -92 7 -43 -6 -47 -5 -51 17
-3 16 -5 12 -6 -13 l-1 -36 40 10 c30 8 51 8 82 -2 57 -17 68 -17 172 2 118
23 425 24 407 3 -9 -11 -6 -18 19 -36 16 -12 28 -25 25 -30 -3 -5 4 -14 16
-21 17 -9 19 -13 8 -20 -10 -6 -8 -9 10 -9 16 0 21 -4 18 -14 -4 -10 2 -18 16
-22 21 -7 21 -7 2 -15 -19 -7 -19 -8 3 -8 12 -1 22 -5 22 -11 0 -5 9 -10 19
-10 11 0 22 -4 25 -8 3 -5 21 -9 41 -10 21 -1 33 3 30 8 -3 6 -3 10 2 11 29 2
47 9 53 20 5 6 13 8 20 4 8 -5 11 -4 6 3 -3 6 -2 13 3 17 6 3 8 13 5 23 -4 12
-3 14 3 4 6 -7 16 -12 23 -10 9 2 16 -11 21 -36 6 -35 3 -42 -27 -75 -31 -32
-54 -83 -54 -121 0 -31 -33 -100 -49 -101 -11 0 -12 -2 -3 -6 10 -4 10 -8 1
-19 -8 -10 -8 -14 -1 -14 6 0 9 -7 5 -16 -3 -9 -1 -19 5 -23 7 -4 13 -19 14
-34 1 -15 6 -27 11 -27 4 0 6 -4 3 -8 -9 -16 10 -107 22 -105 7 2 12 -2 12 -7
0 -6 -4 -10 -10 -10 -5 0 -10 -5 -10 -11 0 -6 7 -9 15 -5 14 5 14 2 0 -24 -8
-16 -15 -39 -15 -51 0 -17 4 -20 23 -16 20 6 21 5 4 -7 -14 -11 -15 -15 -5
-19 11 -4 10 -7 -1 -15 -9 -7 -10 -11 -2 -17 9 -5 9 -10 1 -20 -18 -21 15 -47
45 -35 167 63 239 214 200 415 -8 44 -15 97 -15 118 0 36 1 37 17 21 46 -46
148 -57 221 -24 49 22 57 29 99 87 108 150 -19 413 -295 610 -64 46 -193 98
-224 89 -28 -7 -21 8 17 40 57 47 72 120 34 168 -22 28 -39 34 -39 13 0 -8 -9
-22 -19 -31 -19 -17 -19 -16 -14 23 5 37 2 44 -31 77 l-37 37 -20 -40 c-11
-22 -30 -50 -43 -62 l-23 -22 -7 41 c-9 58 -59 152 -98 185 -71 60 -161 71
-258 33z m-237 -675 c-6 -16 -29 -17 -38 -3 -4 6 -4 18 -1 26 4 12 9 12 25 2
10 -6 17 -18 14 -25z m1035 -86 c16 -19 42 -124 42 -170 0 -43 -22 -92 -45
-101 -27 -10 -63 -7 -72 7 -10 16 -35 164 -33 197 1 14 2 55 3 91 l2 67 46
-39 c25 -21 51 -44 57 -52z m-874 -9 c6 -4 7 -10 4 -14 -11 -10 -35 19 -30 36
5 13 6 13 10 0 3 -8 10 -18 16 -22z m1033 -330 c-3 -8 -6 -5 -6 6 -1 11 2 17
5 13 3 -3 4 -12 1 -19z m-12 -28 c-4 -6 -11 -8 -16 -5 -5 4 -9 1 -9 -4 0 -6
-8 -11 -17 -11 -15 0 -14 2 3 15 22 17 48 20 39 5z m-435 -370 c0 -5 -7 -10
-16 -10 -8 0 -12 5 -9 10 3 6 10 10 16 10 5 0 9 -4 9 -10z m0 -120 c0 -5 -2
-10 -4 -10 -3 0 -8 5 -11 10 -3 6 -1 10 4 10 6 0 11 -4 11 -10z"/>
<path d="M660 1590 c0 -6 7 -10 15 -10 8 0 15 2 15 4 0 2 -7 6 -15 10 -8 3
-15 1 -15 -4z"/>
<path d="M800 1550 c0 -6 -10 -8 -24 -4 -13 3 -27 1 -30 -5 -4 -5 -13 -8 -21
-4 -18 6 -20 -13 -2 -21 6 -4 2 -4 -10 -2 -13 2 -23 0 -23 -5 0 -15 57 -10 70
6 7 8 21 15 31 15 11 0 19 7 19 15 0 8 -2 15 -5 15 -3 0 -5 -5 -5 -10z"/>
<path d="M580 1531 c0 -5 -8 -12 -17 -14 -14 -4 -13 -5 3 -6 12 0 24 6 28 14
3 8 1 15 -4 15 -6 0 -10 -4 -10 -9z"/>
<path d="M833 1420 c-55 -12 -79 -25 -99 -56 -24 -35 -12 -39 38 -12 39 21 55
23 190 23 80 0 149 3 153 7 4 3 -4 13 -17 22 -29 19 -202 30 -265 16z"/>
<path d="M485 1403 c-12 -34 -5 -41 48 -45 28 -2 60 -8 70 -12 24 -11 22 16
-3 39 -27 25 -107 37 -115 18z"/>
<path d="M492 1295 c0 -16 2 -22 5 -12 2 9 2 23 0 30 -3 6 -5 -1 -5 -18z"/>
<path d="M824 1251 c-23 -10 -44 -26 -47 -35 -6 -15 -2 -14 22 3 34 25 51 27
51 7 0 -8 5 -18 10 -21 18 -11 50 6 50 26 0 24 13 24 85 -1 32 -11 60 -18 63
-15 10 9 -134 55 -173 55 -11 0 -38 -9 -61 -19z"/>
<path d="M1366 1254 c-4 -10 -12 -14 -24 -9 -14 5 -15 4 -4 -6 6 -7 12 -21 12
-32 0 -10 5 -15 10 -12 6 3 14 -4 19 -17 7 -15 10 -17 10 -7 1 9 -6 22 -14 29
-19 16 -19 29 2 52 9 10 11 18 6 18 -6 0 -14 -7 -17 -16z"/>
<path d="M492 1233 c4 -33 36 -44 54 -19 11 15 14 14 33 -10 14 -18 21 -22 21
-11 0 22 -26 46 -58 53 -15 3 -33 8 -40 10 -9 3 -12 -4 -10 -23z"/>
<path d="M1476 1183 c-6 -14 -5 -15 5 -6 7 7 10 15 7 18 -3 3 -9 -2 -12 -12z"/>
<path d="M1330 1111 c0 -6 4 -13 10 -16 6 -3 7 1 4 9 -7 18 -14 21 -14 7z"/>
<path d="M596 1025 c-3 -9 -6 -22 -5 -28 0 -7 5 -1 10 12 5 13 8 26 5 28 -2 2
-6 -3 -10 -12z"/>
<path d="M740 966 c0 -2 7 -7 16 -10 8 -3 12 -2 9 4 -6 10 -25 14 -25 6z"/>
<path d="M571 918 c-1 -19 25 -48 42 -48 7 0 4 5 -6 11 -10 6 -22 20 -27 32
-6 16 -9 18 -9 5z"/>
<path d="M749 883 c-13 -16 -12 -17 4 -4 9 7 17 15 17 17 0 8 -8 3 -21 -13z"/>
<path d="M651 850 c-5 -14 -10 -22 -10 -18 -2 16 -59 -15 -102 -55 -42 -39
-101 -117 -68 -90 11 9 18 4 34 -30 11 -22 34 -56 52 -74 23 -25 32 -45 35
-77 1 -24 0 -42 -4 -39 -5 2 -8 -5 -8 -16 0 -11 -4 -22 -8 -25 -10 -6 -9 -36
2 -55 5 -7 4 -17 -2 -23 -8 -8 -7 -15 3 -25 8 -7 12 -20 9 -28 -4 -9 0 -15 9
-15 11 0 16 14 19 56 1 30 -1 59 -7 65 -5 6 -5 9 1 9 18 0 46 -38 38 -51 -5
-9 -10 -7 -15 7 -6 15 -8 12 -8 -13 -1 -18 4 -33 9 -33 6 0 10 -10 9 -22 0
-22 -1 -22 -9 -3 -6 14 -8 0 -8 -45 1 -54 2 -59 8 -30 7 35 7 35 9 5 1 -35 41
-103 41 -70 -1 11 -7 29 -15 39 -19 25 -19 46 0 46 8 0 16 8 17 18 1 9 5 -19
8 -63 l6 -80 3 90 c2 50 7 101 12 115 8 23 8 22 5 -8 -1 -21 2 -32 10 -32 10
0 11 -18 7 -72 -6 -71 -7 -74 -54 -122 -27 -27 -46 -52 -44 -54 3 -3 13 2 24
12 16 15 19 15 24 1 4 -8 13 -15 21 -15 9 0 13 6 10 14 -3 8 -1 17 5 21 6 3
11 -2 11 -13 0 -14 7 -19 30 -20 27 -1 30 3 31 31 l2 32 6 -30 c5 -25 12 -31
38 -33 27 -3 32 -1 28 17 -4 22 24 38 36 20 4 -6 12 -8 19 -4 9 5 10 2 6 -12
-4 -14 -1 -19 14 -20 16 -1 18 2 10 23 -6 14 -9 42 -9 62 1 27 3 30 6 12 9
-54 24 -100 32 -100 5 0 2 18 -5 41 -9 24 -12 57 -9 80 4 25 2 39 -5 39 -7 0
-6 8 3 21 8 11 13 29 10 40 -6 20 -28 26 -38 9 -12 -20 -27 -10 -21 14 7 28
-10 44 -27 26 -9 -10 -9 -14 1 -17 6 -3 12 -17 11 -31 l-1 -27 -7 25 c-7 24
-7 24 -15 5 l-8 -20 -9 20 c-8 17 -9 16 -6 -7 2 -15 1 -25 -4 -23 -4 3 -9 -1
-12 -7 -2 -7 -6 6 -8 30 -4 38 -2 43 13 39 11 -3 18 0 18 8 0 21 -21 30 -31
14 -6 -10 -8 -5 -5 15 7 38 -11 21 -19 -19 -3 -16 -8 -52 -12 -78 -3 -26 -10
-50 -15 -53 -5 -3 -6 5 -4 18 11 47 15 148 6 148 -4 0 -12 -41 -16 -90 -3 -50
-11 -93 -17 -97 -7 -4 -8 16 -3 58 15 133 16 139 42 139 13 0 24 4 24 9 0 5
-11 8 -25 5 -14 -2 -25 0 -25 6 0 6 -4 9 -9 6 -5 -4 -12 0 -14 6 -4 10 -6 10
-6 1 -1 -18 -21 -16 -43 4 -11 10 -18 12 -18 4 0 -6 -13 1 -30 15 -16 15 -27
30 -25 35 13 19 -19 116 -47 144 -16 17 -41 51 -54 77 l-24 47 55 36 c31 19
63 35 73 35 45 0 74 45 52 80 -7 12 -11 10 -19 -10z m9 -545 l-7 -60 -2 56 c0
31 2 59 6 62 10 11 10 7 3 -58z m53 48 c-7 -2 -13 -12 -13 -21 0 -9 -5 -24
-10 -32 -8 -11 -10 -5 -8 23 2 30 6 37 23 36 11 0 14 -3 8 -6z m104 -135 c-3
-8 -6 -5 -6 6 -1 11 2 17 5 13 3 -3 4 -12 1 -19z m90 -30 c-3 -8 -6 -5 -6 6
-1 11 2 17 5 13 3 -3 4 -12 1 -19z m-67 -12 c0 -3 -4 -8 -10 -11 -5 -3 -10 -1
-10 4 0 6 5 11 10 11 6 0 10 -2 10 -4z m48 -47 c-1 -17 -5 -32 -9 -34 -3 -3
-5 6 -4 18 1 12 3 28 4 35 3 27 11 10 9 -19z m-105 1 c-3 -11 -7 -20 -9 -20
-2 0 -4 9 -4 20 0 11 4 20 9 20 5 0 7 -9 4 -20z m39 -42 c-8 -8 -9 -4 -5 13 4
13 8 18 11 10 2 -7 -1 -18 -6 -23z m-92 8 c0 -8 -7 -16 -15 -20 -13 -4 -14 -2
-5 14 13 23 20 26 20 6z m47 -48 c-3 -8 -6 -5 -6 6 -1 11 2 17 5 13 3 -3 4
-12 1 -19z"/>
<path d="M710 831 c0 -49 106 -98 186 -87 24 3 46 1 49 -4 3 -6 11 -10 17 -10
7 0 6 6 -2 15 -7 9 -29 15 -55 15 -33 0 -46 5 -59 23 -9 12 -14 16 -11 10 3
-7 2 -13 -3 -13 -6 0 -12 7 -15 14 -6 15 -44 38 -84 50 -19 6 -23 4 -23 -13z"/>
<path d="M610 744 c0 -7 11 -20 24 -29 17 -12 22 -22 18 -41 -9 -51 58 -60
110 -16 18 16 42 34 53 40 20 11 20 11 -2 12 -12 0 -34 11 -50 24 -23 19 -40
23 -90 23 -47 1 -63 -3 -63 -13z"/>
<path d="M805 610 c-19 -8 -19 -9 3 -9 12 -1 22 4 22 9 0 6 -1 10 -2 9 -2 0
-12 -4 -23 -9z"/>
<path d="M551 526 c7 -15 15 -23 17 -16 3 7 -3 19 -13 28 -15 16 -16 15 -4
-12z"/>
<path d="M1285 523 c-15 -12 -16 -14 -3 -10 11 4 18 0 20 -11 3 -11 6 -8 10
11 6 31 1 33 -27 10z"/>
<path d="M1070 520 c0 -5 5 -10 10 -10 6 0 10 5 10 10 0 6 -4 10 -10 10 -5 0
-10 -4 -10 -10z"/>
<path d="M1332 500 c0 -19 2 -27 5 -17 2 9 2 25 0 35 -3 9 -5 1 -5 -18z"/>
<path d="M1352 500 c0 -14 2 -19 5 -12 2 6 2 18 0 25 -3 6 -5 1 -5 -13z"/>
<path d="M1057 480 c3 -11 7 -20 9 -20 2 0 4 9 4 20 0 11 -4 20 -9 20 -5 0 -7
-9 -4 -20z"/>
<path d="M1198 443 l-1 -58 -7 50 c-6 47 -6 48 -11 15 -3 -26 -10 -36 -29 -41
-14 -4 -20 -7 -14 -8 6 -1 11 -17 12 -37 2 -52 12 -56 12 -6 0 23 5 42 10 42
6 0 10 -16 10 -36 0 -44 20 -114 32 -114 5 0 6 10 2 23 -5 12 -7 68 -5 125 1
56 0 102 -3 102 -3 0 -7 -26 -8 -57z"/>
<path d="M1261 473 c-1 -36 -21 -46 -21 -11 0 36 -8 16 -13 -32 -2 -25 -1 -56
4 -70 6 -21 7 -18 8 17 1 28 7 46 19 55 13 10 16 20 11 43 l-7 30 -1 -32z"/>
<path d="M553 473 c-3 -10 -8 -22 -11 -27 -3 -5 1 -7 8 -4 7 2 15 14 17 26 4
26 -5 29 -14 5z"/>
<path d="M1302 468 c-13 -16 -22 -138 -11 -138 5 0 9 29 9 64 0 42 4 66 13 69
6 2 9 7 6 11 -3 4 -11 1 -17 -6z"/>
<path d="M1030 456 c0 -8 4 -17 9 -20 5 -4 7 3 4 14 -6 23 -13 26 -13 6z"/>
<path d="M955 405 c-16 -8 -55 -20 -85 -26 -35 -9 -47 -14 -33 -17 14 -2 20
-8 16 -18 -3 -8 0 -14 6 -14 6 0 10 3 10 8 -3 20 3 32 17 32 11 0 14 -6 9 -21
-5 -15 -4 -19 4 -15 6 4 11 17 11 29 0 18 2 19 10 7 8 -12 10 -12 16 3 10 26
24 10 25 -31 2 -30 3 -32 6 -9 2 15 9 27 14 27 5 0 9 5 9 10 0 6 -5 9 -11 8
-6 -2 -14 3 -16 10 -3 9 2 12 19 9 12 -2 17 -2 10 0 -7 3 -10 9 -7 14 7 11 8
11 -30 -6z"/>
<path d="M1577 359 c6 -6 9 -19 6 -28 -4 -13 -3 -13 5 -2 5 7 15 10 21 6 9 -5
9 -11 -1 -23 -12 -15 -11 -16 5 -3 15 12 19 9 39 -35 18 -39 22 -68 22 -146 1
-107 11 -128 21 -45 6 47 -10 153 -29 197 -6 15 331 -147 456 -218 74 -42 98
-41 28 1 -46 28 -485 247 -495 247 -1 0 -17 14 -35 30 -30 28 -69 45 -43 19z"/>
<path d="M917 336 c-4 -10 -5 -21 -2 -24 9 -9 17 6 13 25 -3 17 -4 17 -11 -1z"/>
<path d="M0 315 c0 -13 35 -75 42 -75 5 0 -1 18 -12 40 -18 35 -30 49 -30 35z"/>
<path d="M1574 286 c2 -14 -1 -26 -6 -26 -5 0 -6 -5 -3 -10 4 -6 11 -7 17 -4
8 5 9 1 5 -10 -4 -10 -3 -15 3 -11 12 8 12 -62 0 -90 -5 -12 -9 -14 -9 -6 -1
8 -12 -8 -26 -34 -13 -27 -23 -51 -20 -53 2 -2 13 13 24 35 11 21 20 32 21 25
0 -7 -7 -26 -15 -42 -9 -17 -11 -30 -6 -30 6 0 19 21 31 46 24 55 27 159 6
189 -7 11 -14 24 -14 28 0 5 -3 11 -5 14 -3 2 -4 -7 -3 -21z"/>
<path d="M710 255 c0 -8 2 -15 4 -15 2 0 6 7 10 15 3 8 1 15 -4 15 -6 0 -10
-7 -10 -15z"/>
<path d="M57 215 c10 -32 105 -186 110 -181 3 3 -8 27 -23 53 -16 26 -35 59
-42 73 -7 14 -22 36 -33 50 -15 20 -18 21 -12 5z"/>
<path d="M712 210 c0 -14 2 -19 5 -12 2 6 2 18 0 25 -3 6 -5 1 -5 -13z"/>
<path d="M1633 170 c0 -25 2 -35 4 -22 2 12 2 32 0 45 -2 12 -4 2 -4 -23z"/>
<path d="M1582 175 c0 -16 2 -22 5 -12 2 9 2 23 0 30 -3 6 -5 -1 -5 -18z"/>
<path d="M711 144 c0 -11 3 -14 6 -6 3 7 2 16 -1 19 -3 4 -6 -2 -5 -13z"/>
<path d="M650 110 c0 -5 5 -10 10 -10 6 0 10 5 10 10 0 6 -4 10 -10 10 -5 0
-10 -4 -10 -10z"/>
<path d="M1628 100 c-7 -24 -3 -38 8 -28 3 4 4 17 2 30 l-3 23 -7 -25z"/>
<path d="M1607 53 c-10 -9 -9 -23 2 -23 5 0 11 7 15 15 5 15 -5 20 -17 8z"/>
</g>
</svg>
