<?xml version="1.0" standalone="no"?>
<!DOCTYPE svg PUBLIC "-//W3C//DTD SVG 20010904//EN"
 "http://www.w3.org/TR/2001/REC-SVG-20010904/DTD/svg10.dtd">
<svg version="1.0" xmlns="http://www.w3.org/2000/svg"
 width="185.000000pt" height="185.000000pt" viewBox="0 0 185.000000 185.000000"
 preserveAspectRatio="xMidYMid meet">

<g transform="translate(0.000000,185.000000) scale(0.100000,-0.100000)"
fill="#000000" stroke="none">
<path d="M772 1574 c-121 -26 -254 -120 -313 -221 -34 -59 -79 -196 -79 -241
0 -15 -6 -20 -20 -19 -24 2 -25 7 -5 33 16 22 20 60 6 69 -5 3 -13 0 -16 -6
-4 -5 -13 -8 -21 -5 -22 8 -44 -34 -44 -84 0 -28 3 -40 9 -32 7 11 10 10 15
-3 8 -22 8 -22 -10 -22 -18 0 -35 38 -33 71 4 49 0 56 -32 52 -55 -6 -66 -59
-24 -120 29 -42 24 -45 -17 -11 -36 31 -42 31 -55 3 -20 -44 8 -82 70 -93 32
-6 37 -5 37 11 0 15 2 16 9 5 5 -7 14 -10 20 -7 6 4 11 3 11 -2 0 -5 -19 -15
-41 -22 -23 -8 -65 -30 -93 -50 -28 -20 -59 -39 -69 -43 -10 -4 -32 -36 -49
-72 -26 -57 -30 -75 -26 -128 6 -92 40 -155 101 -186 39 -20 52 -22 72 -13 18
8 26 8 35 -3 19 -23 74 -28 131 -12 35 11 58 13 70 6 10 -5 29 -9 44 -9 18 0
24 -4 19 -13 -4 -6 1 -5 12 4 10 9 26 18 34 21 15 5 42 51 54 92 5 16 9 16 24
5 14 -11 14 -10 -2 8 -10 13 -20 41 -21 66 -2 23 -14 67 -28 97 -52 114 -55
190 -12 297 17 42 63 78 82 64 5 -3 0 2 -10 12 -11 9 -25 17 -33 17 -10 0 -14
13 -14 45 0 44 1 46 44 64 26 12 45 27 49 40 6 25 -1 26 -27 6 -47 -35 -43
-10 12 76 46 70 71 99 117 130 32 22 70 42 84 45 14 3 34 9 43 15 10 5 27 9
38 9 20 0 20 -1 5 -30 -27 -53 -29 -110 -6 -191 37 -127 39 -120 -18 -92 -27
14 -64 29 -83 33 -18 5 -43 12 -55 15 -14 5 -23 3 -23 -3 0 -21 43 -52 79 -57
73 -12 149 -63 180 -120 44 -83 108 -131 205 -156 34 -8 47 -17 50 -33 14 -67
15 -94 6 -155 -16 -116 22 -264 82 -317 38 -34 125 -74 162 -74 49 0 142 37
164 65 11 14 39 29 66 36 56 14 89 50 82 91 -2 15 0 28 6 28 7 0 7 4 1 13 -6
6 -13 31 -16 55 -8 65 -48 116 -133 171 -41 26 -72 50 -68 53 3 4 11 5 18 2 7
-3 20 4 30 14 16 18 16 21 0 37 -11 10 -25 14 -39 11 -15 -4 -25 -1 -28 9 -4
8 -1 12 6 10 7 -3 23 4 37 15 21 16 23 22 14 37 -9 13 -23 17 -53 16 -23 -1
-41 2 -41 8 0 5 5 8 12 6 6 -1 18 11 26 26 11 22 11 31 2 43 -20 23 -46 16
-76 -18 -17 -21 -25 -26 -20 -13 20 54 19 143 -4 216 -41 136 -77 183 -189
249 -114 66 -202 83 -292 56 -32 -10 -51 -11 -63 -4 -29 16 -105 17 -174 2z
m-568 -459 c3 -8 1 -15 -4 -15 -6 0 -10 7 -10 15 0 8 2 15 4 15 2 0 6 -7 10
-15z m10 -51 c3 -8 2 -12 -4 -9 -6 3 -10 10 -10 16 0 14 7 11 14 -7z m-36 -90
c15 -12 15 -13 1 -14 -15 0 -40 39 -38 63 0 7 5 1 10 -12 5 -13 17 -30 27 -37z
m252 26 c8 -5 11 -10 5 -10 -5 0 -17 5 -25 10 -8 5 -10 10 -5 10 6 0 17 -5 25
-10z m-55 -80 c3 -6 -1 -7 -9 -4 -18 7 -21 14 -7 14 6 0 13 -4 16 -10z m56
-99 c-9 -6 -12 -18 -7 -36 4 -15 2 -51 -4 -81 -9 -40 -19 -60 -46 -83 -19 -17
-44 -31 -54 -31 -17 0 -20 7 -20 53 0 67 13 111 45 153 21 28 33 34 63 34 25
0 33 -3 23 -9z m-252 -58 c-18 -36 -32 -86 -37 -133 -8 -63 -10 -68 -11 -28
-2 69 18 148 46 186 13 17 25 32 27 32 1 0 -10 -26 -25 -57z m1142 39 c-7 -2
-18 1 -23 6 -8 8 -4 9 13 5 13 -4 18 -8 10 -11z m46 -8 c-3 -3 -12 -4 -19 -1
-8 3 -5 6 6 6 11 1 17 -2 13 -5z m96 -47 c18 -19 41 -50 50 -69 17 -37 23 -98
9 -98 -4 0 -24 14 -45 31 -35 29 -75 93 -91 147 -12 36 36 29 77 -11z m237
-124 c7 -23 10 -47 7 -55 -3 -7 -6 -2 -6 12 -1 25 -19 65 -55 125 -17 27 -16
27 12 -5 17 -19 36 -54 42 -77z m-1673 35 c-3 -8 -6 -5 -6 6 -1 11 2 17 5 13
3 -3 4 -12 1 -19z m23 -118 c6 -11 8 -20 5 -20 -11 0 -35 69 -34 97 1 21 3 18
9 -14 5 -23 14 -51 20 -63z m353 66 c-18 -25 -54 -46 -76 -46 -7 1 2 7 20 15
17 7 39 25 49 40 9 14 19 24 21 21 3 -3 -3 -16 -14 -30z m1110 -46 c9 0 17 -4
17 -10 0 -30 -57 3 -91 53 -22 32 -22 32 17 -5 22 -21 48 -38 57 -38z m-129
-45 c15 -19 44 -44 64 -55 20 -10 30 -19 21 -20 -46 -1 -139 109 -138 165 0
12 5 4 13 -18 8 -20 26 -53 40 -72z m-879 65 c3 -5 1 -10 -4 -10 -6 0 -11 5
-11 10 0 6 2 10 4 10 3 0 8 -4 11 -10z m-31 -67 c-11 -14 -31 -33 -44 -42 -17
-10 -12 -2 13 22 20 21 37 43 37 49 0 6 3 8 7 5 4 -4 -2 -19 -13 -34z"/>
<path d="M759 1063 c-12 -15 -12 -16 5 -10 10 4 25 2 32 -4 11 -9 21 -9 42 0
22 9 35 9 65 -4 58 -24 67 -16 12 11 -60 29 -136 32 -156 7z"/>
<path d="M632 762 c25 -51 34 -62 49 -62 46 0 66 31 32 48 -25 13 -85 23 -81
14z"/>
<path d="M1240 733 c0 -6 -12 -28 -26 -49 -15 -21 -19 -32 -10 -24 21 17 49
70 42 78 -3 3 -6 1 -6 -5z"/>
<path d="M1159 623 c-13 -15 -12 -15 9 -4 23 12 28 21 13 21 -5 0 -15 -7 -22
-17z"/>
<path d="M1237 595 c-4 -22 -6 -53 -6 -70 1 -16 5 -3 10 30 10 67 6 102 -4 40z"/>
<path d="M1801 437 c-65 -90 -85 -141 -77 -196 8 -59 50 -145 83 -171 39 -30
49 -24 12 7 -42 36 -79 116 -79 174 0 50 21 114 34 102 4 -4 4 -1 1 8 -3 9 12
39 36 73 22 31 39 59 38 61 -2 2 -24 -24 -48 -58z"/>
<path d="M1229 478 c-1 -2 -2 -30 -3 -63 -1 -50 -7 -68 -34 -107 -65 -94 -146
-134 -250 -124 -141 15 -187 65 -157 170 9 31 15 65 13 77 -3 19 -5 19 -47
-13 -25 -18 -67 -45 -95 -60 -45 -25 -94 -71 -226 -215 -25 -27 -64 -64 -87
-82 -24 -19 -41 -36 -38 -39 2 -3 12 1 22 9 11 9 14 10 9 2 -9 -17 6 -17 23 0
11 10 13 10 7 -1 -5 -9 11 -12 67 -12 82 0 92 6 100 58 5 28 3 33 -11 28 -15
-5 -15 -5 -1 6 9 7 14 19 12 26 -3 6 0 12 6 12 6 0 12 -17 12 -37 1 -26 3 -30
6 -14 8 39 -5 74 -25 66 -16 -6 -16 -5 0 11 14 14 20 15 32 5 13 -11 15 -9 11
18 -3 25 0 31 15 31 10 0 26 -7 34 -16 11 -10 16 -11 16 -3 0 7 3 10 6 6 14
-13 -7 -27 -27 -17 -15 9 -19 7 -19 -5 0 -9 4 -14 9 -10 5 3 12 1 16 -5 3 -5
-1 -10 -9 -10 -9 0 -16 -5 -16 -11 0 -5 4 -7 10 -4 6 3 7 -1 4 -9 -3 -9 -13
-16 -21 -16 -8 0 -12 -4 -9 -9 8 -12 -14 -72 -24 -66 -4 3 -10 -4 -13 -15 -17
-64 66 37 94 115 7 19 19 35 26 35 7 0 10 -7 6 -17 -4 -10 -2 -14 4 -10 15 9
23 -17 11 -34 -7 -10 -11 -11 -14 -2 -6 13 -34 6 -34 -9 0 -5 5 -6 10 -3 6 3
10 -3 10 -14 0 -11 -4 -23 -10 -26 -5 -3 -10 -11 -10 -16 0 -6 4 -8 9 -5 5 4
7 -3 4 -14 -5 -19 0 -20 95 -20 75 0 101 3 105 14 4 10 27 14 83 15 42 1 81 4
87 8 6 4 8 -2 5 -15 -7 -26 8 -30 16 -4 4 11 24 22 53 30 55 14 59 15 93 30
14 6 21 11 16 11 -6 1 5 17 24 36 18 19 38 31 43 28 6 -4 8 0 4 10 -4 12 -1
17 11 17 14 0 15 2 2 10 -16 10 -15 11 15 29 17 11 17 12 1 7 -14 -5 -17 -2
-12 10 3 9 9 40 12 69 5 41 10 52 21 48 8 -3 12 -12 9 -20 -3 -8 0 -13 7 -11
13 3 69 -36 63 -43 -2 -2 2 -10 10 -17 8 -8 14 -9 14 -2 0 18 82 -30 87 -51 4
-13 11 -18 23 -14 10 3 27 -4 41 -17 14 -13 37 -29 52 -36 18 -8 26 -17 21
-25 -4 -6 -4 -9 1 -5 8 8 111 -60 141 -93 9 -10 22 -19 27 -19 17 0 -34 50
-88 86 -27 19 -70 50 -95 69 -25 19 -85 60 -135 91 -112 71 -160 108 -204 157
-30 34 -69 63 -72 55z m-623 -185 c-2 -9 -8 -19 -15 -21 -10 -3 -10 0 -2 17
14 25 20 27 17 4z m679 -12 c-3 -6 -11 -8 -17 -5 -6 4 -5 9 3 15 16 10 23 4
14 -10z m-632 -34 c-5 -10 -14 -12 -28 -6 -19 7 -19 8 3 8 12 1 22 6 22 13 0
6 3 9 6 5 3 -3 2 -12 -3 -20z m612 13 c3 -6 -1 -17 -9 -26 -9 -8 -16 -11 -16
-5 0 5 5 13 11 17 8 4 7 9 -2 15 -10 6 -10 9 -2 9 6 0 15 -5 18 -10z m-665
-10 c0 -5 -5 -10 -11 -10 -5 0 -7 5 -4 10 3 6 8 10 11 10 2 0 4 -4 4 -10z
m110 -34 c0 -3 -4 -8 -10 -11 -5 -3 -10 -1 -10 4 0 6 5 11 10 11 6 0 10 -2 10
-4z m537 -20 c-2 -6 -11 -10 -20 -8 -10 2 -15 -2 -12 -10 6 -16 -3 -29 -31
-45 -19 -10 -20 -9 -16 13 2 13 9 24 14 24 5 0 6 -4 3 -10 -3 -5 0 -7 8 -4 8
3 12 14 10 28 -4 18 0 22 21 22 15 0 25 -5 23 -10z m-97 -46 c0 -5 -2 -10 -4
-10 -3 0 -8 5 -11 10 -3 6 -1 10 4 10 6 0 11 -4 11 -10z m-630 -10 c0 -5 -4
-10 -9 -10 -19 0 -22 -35 -5 -47 10 -7 13 -13 7 -13 -7 0 -15 4 -18 10 -10 15
-23 12 -28 -7 -4 -13 -5 -12 -6 5 0 12 6 25 14 28 8 3 17 14 20 25 7 20 25 27
25 9z m-69 -13 c-6 -8 -8 -17 -4 -20 3 -4 -1 -7 -10 -7 -20 0 -22 11 -5 28 16
16 33 15 19 -1z m339 -7 c0 -5 -2 -10 -4 -10 -3 0 -8 5 -11 10 -3 6 -1 10 4
10 6 0 11 -4 11 -10z m206 -35 c-3 -8 -11 -15 -18 -14 -10 0 -10 2 0 6 6 2 12
14 13 26 0 12 3 16 6 9 3 -7 2 -19 -1 -27z m144 15 c-20 -13 -40 -13 -40 0 0
5 6 7 14 4 8 -3 17 0 21 6 4 6 10 9 13 5 4 -3 0 -10 -8 -15z m-450 -6 c0 -8
-5 -12 -10 -9 -6 4 -8 11 -5 16 9 14 15 11 15 -7z m-273 -35 c-13 -32 -22 -37
-31 -14 -3 9 1 18 9 21 7 3 11 12 8 20 -3 10 0 12 10 8 12 -4 13 -11 4 -35z
m633 28 c0 -7 -9 -13 -20 -13 -25 0 -26 13 -2 19 9 3 18 5 20 6 1 0 2 -5 2
-12z m-106 -8 c3 -3 -10 -5 -29 -6 -19 0 -35 3 -35 6 0 8 57 8 64 0z m-424
-28 c0 -5 -7 -12 -16 -15 -14 -5 -15 -4 -4 9 14 17 20 19 20 6z"/>
<path d="M1814 355 c11 -8 24 -15 30 -15 5 0 1 7 -10 15 -10 8 -23 14 -29 14
-5 0 -1 -6 9 -14z"/>
<path d="M1799 334 c-1 -5 -1 -12 -1 -15 1 -4 -8 -5 -18 -2 -16 4 -20 0 -20
-19 0 -13 5 -29 12 -36 9 -9 8 -12 -7 -13 -11 0 -14 -3 -8 -6 7 -2 15 -4 18
-4 5 1 18 -9 50 -37 7 -6 17 -12 22 -12 4 0 -5 12 -20 26 -15 14 -25 30 -21
36 4 6 0 14 -7 19 -8 5 -9 9 -3 9 6 0 17 -7 24 -15 7 -8 17 -15 23 -15 6 0 0
11 -13 25 -23 25 -16 36 9 13 10 -11 12 -9 9 6 -3 20 -47 55 -49 40z"/>
<path d="M1328 312 c3 -10 1 -13 -6 -8 -7 4 -12 3 -12 -3 0 -21 18 -19 28 3 8
17 7 23 -3 23 -8 0 -11 -7 -7 -15z"/>
<path d="M1378 304 c-3 -5 -2 -18 2 -28 3 -11 9 -15 12 -10 3 5 2 18 -2 28 -3
11 -9 15 -12 10z"/>
<path d="M1333 279 c-6 -6 -9 -17 -7 -24 3 -7 1 -16 -5 -20 -6 -3 -11 -14 -11
-23 0 -21 -39 -73 -40 -53 0 7 -10 1 -22 -15 -13 -16 -22 -35 -20 -42 2 -7 -2
-19 -8 -27 -8 -9 -8 -15 0 -20 18 -11 11 -23 -12 -18 -20 4 -21 3 -6 -7 11 -6
57 -10 120 -8 98 3 103 4 106 25 3 23 -7 28 -48 25 -18 -1 -33 20 -19 29 14 8
13 137 -1 154 -10 11 -10 15 -1 15 7 0 9 5 6 10 -8 13 -18 13 -32 -1z m-56
-145 c-3 -3 -12 -4 -19 -1 -8 3 -5 6 6 6 11 1 17 -2 13 -5z m29 -51 c-6 -6
-36 9 -36 18 0 5 9 4 20 -3 10 -7 18 -14 16 -15z m-46 3 c0 -2 -8 -10 -17 -17
-16 -13 -17 -12 -4 4 13 16 21 21 21 13z"/>
<path d="M1430 250 c0 -5 5 -10 11 -10 5 0 7 5 4 10 -3 6 -8 10 -11 10 -2 0
-4 -4 -4 -10z"/>
<path d="M1757 209 c7 -9 10 -19 6 -22 -3 -4 -1 -7 5 -7 17 0 15 16 -5 31 -16
12 -17 12 -6 -2z"/>
<path d="M1780 166 c0 -2 7 -9 15 -16 9 -7 15 -8 15 -2 0 5 -7 12 -15 16 -8 3
-15 4 -15 2z"/>
<path d="M625 82 c-14 -10 -12 -45 3 -48 7 -1 8 0 2 3 -6 3 -6 11 1 25 12 22
9 31 -6 20z"/>
<path d="M860 30 c0 -5 4 -10 9 -10 6 0 13 5 16 10 3 6 -1 10 -9 10 -9 0 -16
-4 -16 -10z"/>
<path d="M1448 23 c7 -3 16 -2 19 1 4 3 -2 6 -13 5 -11 0 -14 -3 -6 -6z"/>
</g>
</svg>
