<?xml version="1.0" standalone="no"?>
<!DOCTYPE svg PUBLIC "-//W3C//DTD SVG 20010904//EN"
 "http://www.w3.org/TR/2001/REC-SVG-20010904/DTD/svg10.dtd">
<svg version="1.0" xmlns="http://www.w3.org/2000/svg"
 width="138.000000pt" height="138.000000pt" viewBox="0 0 138.000000 138.000000"
 preserveAspectRatio="xMidYMid meet">

<g transform="translate(0.000000,138.000000) scale(0.100000,-0.100000)"
fill="#000000" stroke="none">
<path d="M499 1325 c-13 -7 -48 -21 -77 -30 -60 -20 -94 -56 -111 -120 -13
-48 -14 -105 -3 -105 5 0 14 -12 21 -27 10 -21 9 -28 -1 -34 -19 -13 -22 -11
-38 23 -8 18 -36 47 -62 65 l-48 33 0 -29 c0 -16 -4 -41 -10 -55 -9 -25 8 -71
43 -114 5 -7 11 -60 12 -117 2 -70 7 -110 16 -121 11 -14 10 -18 -6 -30 -18
-13 -18 -14 7 -14 17 0 32 -9 44 -28 25 -38 44 -56 44 -42 0 15 18 3 31 -22 8
-15 8 -19 0 -14 -17 11 -13 -10 4 -24 13 -10 15 -9 15 11 0 27 -43 82 -55 71
-5 -4 -5 1 -2 10 3 10 1 20 -5 24 -7 4 -6 9 3 15 24 15 38 10 53 -18 9 -17 15
-22 16 -12 0 22 -36 53 -54 46 -10 -4 -13 -1 -9 9 10 27 42 14 73 -31 30 -43
52 -56 64 -36 4 5 -6 19 -21 31 -22 16 -23 19 -5 10 12 -6 28 -8 34 -4 7 4 8
3 4 -4 -11 -18 3 -14 29 6 18 14 21 22 13 36 -9 15 -7 17 11 11 12 -4 21 -2
21 4 0 6 -4 11 -10 11 -5 0 -10 9 -10 19 0 10 -7 22 -16 25 -13 5 -14 9 -4 21
7 8 19 15 27 15 8 0 21 7 29 15 9 8 26 15 40 15 13 0 24 5 24 11 0 11 -12 10
-95 -9 -37 -9 -127 -39 -167 -57 -15 -6 -18 -2 -18 28 0 40 24 53 55 31 34
-25 44 -18 32 21 -12 40 -3 57 16 30 12 -15 18 -16 43 -7 27 11 27 11 4 9 -16
-1 -32 6 -43 20 -15 19 -21 21 -43 11 -24 -11 -24 -13 -8 -25 15 -11 15 -13
-10 -23 -41 -15 -49 -13 -42 15 9 37 24 66 51 104 14 18 22 37 20 42 -8 11 92
40 112 32 10 -4 14 -2 10 4 -10 15 134 22 148 7 6 -5 29 -22 52 -37 23 -14 61
-46 84 -69 l43 -43 -27 -3 c-40 -5 -33 -22 8 -20 19 1 35 3 35 4 0 2 -9 20
-20 39 -19 34 -19 36 -3 33 20 -4 83 -91 83 -115 0 -8 -4 -11 -10 -8 -5 3 -28
-4 -51 -15 -39 -20 -43 -21 -87 -6 -46 16 -172 23 -158 9 4 -4 30 -9 58 -10
28 -1 71 -9 95 -18 42 -16 45 -16 88 5 57 27 81 20 95 -28 14 -53 14 -55 -30
-76 -22 -11 -40 -22 -41 -25 0 -3 -2 -16 -3 -28 l-3 -21 31 22 c48 35 57 39
50 22 -3 -9 -1 -16 5 -16 6 0 13 11 17 25 3 14 10 25 14 25 5 0 2 12 -5 28 -7
15 -16 41 -18 59 -12 80 -109 207 -206 272 -55 37 -56 38 -53 81 5 79 -38 137
-123 163 -79 24 -90 25 -116 12z m83 -22 c15 -3 28 -14 31 -24 4 -16 11 -18
31 -13 17 4 26 2 26 -6 0 -6 -4 -8 -10 -5 -5 3 -10 4 -10 0 0 -3 11 -10 24
-15 18 -6 28 -21 36 -50 21 -77 -3 -100 -108 -105 -37 -2 -88 -11 -114 -21
-35 -14 -53 -16 -74 -9 -33 12 -42 32 -17 38 14 4 13 5 -5 6 -30 1 -39 27 -17
51 19 21 20 20 -32 36 -10 3 -10 9 -1 29 8 17 17 24 28 20 10 -3 28 -1 41 5
22 10 21 10 -8 6 -52 -8 -38 11 25 33 31 12 66 26 77 31 11 5 27 6 35 4 8 -3
27 -8 42 -11z m-224 -220 c12 -21 7 -53 -7 -53 -23 0 -39 88 -24 127 6 14 9
10 13 -17 4 -19 12 -45 18 -57z m405 -15 c23 -18 44 -34 46 -35 2 -2 2 -6 -2
-9 -5 -5 -84 34 -106 52 -4 3 9 24 15 24 3 0 24 -15 47 -32z m-521 1 c26 -14
53 -78 39 -92 -7 -7 -12 -6 -15 4 -25 69 -27 73 -36 59 -5 -8 -5 -21 0 -29 5
-10 3 -21 -6 -29 -21 -19 -45 33 -32 70 11 31 19 33 50 17z m163 -30 c4 -6 -7
-33 -23 -60 -38 -60 -52 -108 -52 -180 0 -50 -3 -57 -30 -77 -16 -12 -34 -22
-39 -22 -11 0 -31 93 -28 130 2 19 7 24 25 23 23 -3 30 11 10 23 -7 5 -4 10
10 15 28 10 29 29 2 29 -11 0 -20 2 -20 5 0 11 48 57 71 69 13 6 28 21 34 34
10 23 30 29 40 11z m440 -40 c11 -17 0 -20 -21 -4 -17 13 -17 14 -2 15 9 0 20
-5 23 -11z m-585 -40 c0 -6 -4 -7 -10 -4 -5 3 -10 11 -10 16 0 6 5 7 10 4 6
-3 10 -11 10 -16z m117 -226 c-4 -3 -1 -13 5 -22 10 -13 10 -14 -2 -3 -8 6
-23 12 -34 13 -21 0 -21 0 -1 9 25 11 41 12 32 3z"/>
<path d="M580 1270 c0 -5 5 -10 10 -10 6 0 10 5 10 10 0 6 -4 10 -10 10 -5 0
-10 -4 -10 -10z"/>
<path d="M450 1232 c0 -7 -15 -13 -32 -13 l-33 -2 35 -6 c40 -8 60 3 42 21 -9
9 -12 9 -12 0z"/>
<path d="M505 1231 c-3 -5 16 -13 42 -17 27 -4 53 -14 60 -23 9 -12 12 -12 13
-3 0 10 8 12 28 7 22 -4 29 -2 29 10 0 12 -8 14 -35 9 -19 -4 -37 -2 -41 3 -9
14 -89 25 -96 14z"/>
<path d="M435 1150 c-17 -7 -15 -9 12 -9 17 -1 34 3 37 7 6 11 -24 12 -49 2z"/>
<path d="M550 1140 c0 -5 7 -10 15 -10 8 0 15 5 15 10 0 6 -7 10 -15 10 -8 0
-15 -4 -15 -10z"/>
<path d="M398 1113 c6 -2 18 -2 25 0 6 3 1 5 -13 5 -14 0 -19 -2 -12 -5z"/>
<path d="M440 1103 c1 -25 17 -33 46 -22 27 10 27 12 9 19 -26 11 -55 12 -55
3z"/>
<path d="M330 1084 c0 -8 5 -12 10 -9 6 4 8 11 5 16 -9 14 -15 11 -15 -7z"/>
<path d="M80 1037 c0 -36 16 -75 45 -109 36 -42 34 -94 -5 -143 -50 -63 -70
-119 -70 -196 0 -66 1 -70 40 -110 37 -39 42 -41 82 -36 24 3 60 13 82 22 21
9 41 14 44 11 13 -14 9 -75 -9 -124 -25 -68 -24 -83 5 -140 16 -31 43 -60 80
-87 31 -22 56 -46 56 -55 0 -11 2 -12 8 -2 11 17 45 4 38 -15 -3 -8 -6 -19 -6
-25 0 -6 -9 -3 -20 7 -21 19 -28 7 -8 -13 18 -18 27 -15 38 13 11 29 30 33 30
8 1 -17 1 -17 11 0 13 22 17 19 -51 45 -69 28 -146 93 -166 141 -19 45 -11
111 17 143 16 18 19 19 15 5 -3 -11 0 -20 9 -23 14 -6 14 -19 -2 -76 -2 -10 0
-18 6 -18 6 0 11 15 11 33 0 32 11 59 24 58 18 -3 19 1 1 9 -19 8 -19 9 2 9
24 1 39 -14 23 -24 -5 -3 -10 -16 -10 -28 1 -20 4 -19 30 12 23 27 27 38 18
48 -8 10 -13 10 -18 3 -5 -7 -14 -7 -31 2 -17 10 -25 23 -26 48 -5 61 -13 82
-29 76 -8 -3 -12 -2 -9 3 6 12 -15 61 -27 61 -4 0 -11 0 -14 -1 -4 0 -11 5
-16 13 -7 10 -12 8 -25 -9 -8 -13 -22 -23 -29 -23 -8 0 -14 -7 -14 -15 0 -23
-34 -18 -59 9 -25 27 -31 83 -10 97 8 5 10 9 5 9 -5 0 -1 9 9 20 11 12 20 34
21 49 1 16 5 39 9 51 6 20 4 22 -14 17 -25 -6 -25 -8 -5 38 10 24 13 48 8 69
-7 33 -37 78 -51 76 -4 -1 -9 3 -11 9 -8 23 24 9 50 -21 32 -39 37 -27 8 20
-15 24 -26 32 -42 30 -15 -2 -24 3 -26 15 -3 15 1 17 25 11 19 -5 25 -3 18 4
-5 6 -22 14 -37 17 -25 6 -28 4 -28 -18z m62 -293 c-3 -17 -8 -22 -15 -15 -11
11 -3 41 11 41 5 0 7 -12 4 -26z m-42 -54 c-8 -15 -7 -26 1 -42 11 -21 11 -22
-4 -9 -15 12 -17 11 -17 -7 0 -11 7 -22 15 -26 8 -3 15 -14 15 -25 0 -10 8
-28 18 -39 21 -24 81 -45 96 -34 6 5 20 12 31 15 18 7 19 6 3 -6 -14 -11 -15
-16 -5 -27 10 -12 9 -12 -5 -1 -14 10 -21 11 -32 2 -10 -8 -16 -9 -21 -1 -3 5
-15 10 -26 10 -11 0 -17 -4 -14 -10 3 -5 15 -10 25 -10 10 0 22 -4 25 -10 4
-6 -11 -10 -39 -10 -40 0 -46 3 -66 36 -30 48 -39 153 -16 189 20 30 31 34 16
5z m236 -217 c-7 -7 -26 7 -26 19 0 6 6 6 15 -2 9 -7 13 -15 11 -17z m10 -60
c-7 -7 -26 7 -26 19 0 6 6 6 15 -2 9 -7 13 -15 11 -17z"/>
<path d="M526 1014 c-5 -18 -13 -24 -32 -24 -19 0 -25 4 -20 15 11 31 -11 14
-27 -20 -22 -46 -21 -66 1 -38 9 12 28 23 42 25 22 3 25 -1 28 -29 2 -18 8
-33 14 -33 5 0 7 7 4 15 -3 9 1 18 10 22 11 4 12 8 4 13 -8 5 -3 10 13 14 20
5 25 12 24 32 -2 21 -8 27 -29 30 -21 2 -28 -3 -32 -22z m46 -1 c-6 -3 -10 -9
-6 -14 3 -5 -2 -9 -10 -9 -20 0 -20 5 0 25 9 9 19 13 23 9 3 -4 0 -9 -7 -11z"/>
<path d="M600 1000 c0 -5 5 -10 10 -10 6 0 10 5 10 10 0 6 -4 10 -10 10 -5 0
-10 -4 -10 -10z"/>
<path d="M730 928 c0 -5 5 -8 12 -8 6 0 8 -3 4 -7 -8 -9 -14 -10 -51 -12 -41
-2 -28 -21 15 -21 29 0 42 5 50 20 6 12 21 20 35 20 14 0 25 5 25 10 0 6 -20
9 -45 8 -25 -2 -45 -6 -45 -10z"/>
<path d="M785 870 c-17 -7 -14 -9 13 -9 20 -1 31 3 27 9 -7 12 -13 12 -40 0z"/>
<path d="M450 835 c0 -8 5 -15 10 -15 6 0 10 7 10 15 0 8 -4 15 -10 15 -5 0
-10 -7 -10 -15z"/>
<path d="M189 698 c-7 -13 -16 -26 -21 -29 -5 -3 -9 -23 -10 -44 -2 -43 20
-66 61 -64 21 1 22 2 6 6 -54 13 -67 67 -24 105 21 18 24 34 10 43 -6 3 -15
-5 -22 -17z"/>
<path d="M603 708 c2 -7 12 -12 21 -10 27 5 149 -47 172 -73 l22 -24 -2 26
c-2 43 -101 93 -184 93 -23 0 -32 -4 -29 -12z"/>
<path d="M625 659 c-22 -11 -31 -16 -20 -13 11 4 33 9 50 13 16 4 25 10 20 13
-6 4 -29 -2 -50 -13z"/>
<path d="M987 628 c-5 -9 -19 -19 -33 -22 -32 -8 -31 -26 1 -26 25 0 25 -1 25
-90 0 -49 1 -93 3 -97 1 -4 -6 -9 -16 -11 -16 -3 -17 1 -12 35 4 31 3 34 -5
15 -7 -18 -15 -21 -35 -16 -28 7 -33 -7 -10 -26 8 -7 20 -31 27 -54 16 -53 38
-78 39 -44 0 13 3 17 6 11 2 -7 9 -13 14 -13 10 0 5 42 -6 60 -4 6 -2 17 4 24
8 9 11 58 9 142 -2 76 -6 122 -11 112z"/>
<path d="M620 611 c0 -10 89 -43 116 -43 24 0 41 8 33 16 -2 2 -17 7 -34 10
-16 3 -49 10 -72 14 -24 5 -43 7 -43 3z"/>
<path d="M885 590 c10 -35 37 -91 41 -87 6 6 -17 70 -33 92 -14 19 -15 19 -8
-5z"/>
<path d="M330 560 c0 -5 5 -10 11 -10 5 0 7 5 4 10 -3 6 -8 10 -11 10 -2 0 -4
-4 -4 -10z"/>
<path d="M930 481 c0 -5 5 -13 10 -16 6 -3 10 -2 10 4 0 5 -4 13 -10 16 -5 3
-10 2 -10 -4z"/>
<path d="M825 449 c-11 -16 -1 -19 13 -3 7 8 8 14 3 14 -5 0 -13 -5 -16 -11z"/>
<path d="M463 387 c-2 -17 0 -19 7 -7 5 8 10 11 10 6 0 -5 -11 -24 -25 -42
-14 -18 -30 -56 -35 -85 -12 -63 -12 -59 1 -59 5 0 7 5 3 12 -4 7 -3 8 4 4 7
-4 12 -22 12 -41 0 -37 16 -56 26 -31 9 23 23 20 29 -6 4 -17 14 -23 35 -24
23 -1 29 4 34 28 7 34 26 28 26 -8 0 -36 18 -29 23 9 l4 32 1 -31 c2 -22 8
-33 22 -37 11 -3 20 -12 20 -20 0 -8 7 -17 15 -21 8 -3 15 -1 15 4 0 6 -4 10
-10 10 -5 0 -10 5 -10 11 0 7 10 5 25 -5 25 -16 25 -16 25 11 0 26 -15 83 -31
114 -4 9 -5 26 -2 37 4 17 1 20 -17 15 -19 -5 -21 -3 -15 17 6 19 4 21 -14 15
-19 -6 -26 2 -22 27 0 4 -6 5 -14 2 -8 -4 -15 -1 -15 6 0 6 -6 10 -12 8 -7 -3
-22 4 -33 14 -11 11 -28 17 -37 14 -10 -2 -16 -1 -13 4 2 4 -3 15 -13 23 -16
15 -18 15 -19 -6z m31 -156 c-6 -6 -24 19 -24 34 1 6 7 1 15 -9 8 -11 12 -22
9 -25z m140 15 c-6 -15 -24 -23 -24 -11 0 8 24 34 28 30 1 -1 0 -10 -4 -19z
m-74 4 c0 -5 -2 -10 -4 -10 -3 0 -8 5 -11 10 -3 6 -1 10 4 10 6 0 11 -4 11
-10z m-79 -30 c12 0 19 -7 18 -17 0 -11 -3 -13 -6 -5 -2 6 -8 10 -12 7 -15 -9
-45 21 -35 36 7 11 9 11 12 -3 2 -10 12 -18 23 -18z m96 -22 c-3 -8 -6 -5 -6
6 -1 11 2 17 5 13 3 -3 4 -12 1 -19z m-50 -33 c0 -8 -4 -15 -9 -15 -10 0 -11
14 -1 23 9 10 10 9 10 -8z m153 -45 c0 -6 -9 -5 -20 2 -11 7 -20 16 -20 21 0
4 9 3 20 -3 11 -6 20 -15 20 -20z"/>
<path d="M861 388 c-1 -25 -5 -28 -33 -27 -18 0 -27 3 -20 6 11 4 18 33 7 33
-21 0 -55 -28 -68 -56 -16 -33 -16 -34 3 -34 14 0 18 5 15 18 -3 9 1 5 8 -11
14 -28 27 -27 27 4 0 12 6 16 20 12 11 -3 20 0 20 6 0 6 7 11 16 11 10 0 14
-6 10 -15 -7 -18 15 -20 32 -3 18 18 15 28 -5 21 -16 -6 -17 -5 -3 12 14 17
13 18 -2 12 -12 -4 -18 0 -21 16 -4 18 -5 17 -6 -5z"/>
<path d="M315 317 c-8 -41 8 -84 48 -124 48 -51 55 -39 7 13 -40 44 -42 49
-38 95 6 55 -8 67 -17 16z"/>
<path d="M920 270 c0 -5 -7 -6 -17 -3 -11 5 -14 3 -9 -6 5 -8 -5 -30 -24 -58
-21 -29 -33 -57 -33 -77 1 -25 -1 -27 -7 -11 -4 11 -5 24 -2 29 3 5 0 6 -6 3
-5 -4 -18 -4 -29 0 -15 6 -13 8 12 13 34 6 41 33 10 38 -17 3 -18 1 -5 -8 12
-9 8 -11 -17 -6 -32 5 -33 5 -34 -32 l-1 -37 -14 32 c-7 17 -19 35 -26 39 -10
6 -10 4 0 -8 8 -11 13 -45 14 -92 l0 -75 29 1 c17 1 30 7 32 17 4 13 5 13 6
-1 1 -25 58 -25 64 -1 4 17 5 17 6 1 0 -10 6 -18 11 -18 12 0 12 2 0 34 -10
27 2 78 14 58 3 -6 2 -13 -4 -17 -12 -7 -13 -25 -2 -25 14 0 35 54 23 58 -5 2
-7 11 -5 20 3 10 -6 4 -22 -13 -18 -19 -25 -23 -21 -11 4 10 3 24 -3 31 -8 9
-8 15 0 20 5 3 10 1 10 -4 0 -6 5 -11 10 -11 6 0 10 7 10 15 0 8 6 15 14 15 8
0 13 -8 12 -17 0 -10 6 -18 14 -18 16 0 24 81 8 91 -5 3 -6 14 -3 25 4 11 2
19 -4 19 -6 0 -11 -4 -11 -10z m-153 -217 c-3 -10 -5 -4 -5 12 0 17 2 24 5 18
2 -7 2 -21 0 -30z m93 12 c0 -8 -4 -15 -10 -15 -5 0 -7 7 -4 15 4 8 8 15 10
15 2 0 4 -7 4 -15z"/>
<path d="M253 239 c-7 -7 -13 -18 -13 -25 0 -24 -42 -62 -103 -94 -70 -36
-146 -94 -136 -105 4 -3 46 21 95 54 49 33 89 59 91 58 1 -2 -2 -28 -6 -60 -9
-64 5 -74 24 -16 8 22 9 43 3 58 -6 17 -5 27 4 32 18 11 20 6 27 -63 5 -56 9
-63 29 -66 13 -2 25 3 28 12 3 9 10 16 15 16 4 0 6 -7 3 -15 -5 -12 2 -15 32
-15 l39 1 -28 20 c-37 28 -77 99 -78 140 -1 19 -4 44 -7 57 -6 18 -9 21 -19
11z m22 -131 c12 -44 -10 -33 -24 12 -6 22 -8 51 -4 67 7 27 7 27 14 -12 3
-22 9 -52 14 -67z m15 -68 c-9 -17 -15 -19 -23 -10 -9 9 -7 15 7 26 25 18 31
12 16 -16z"/>
<path d="M940 89 c0 -5 14 -15 30 -21 17 -5 37 -22 46 -37 8 -14 13 -18 10 -8
-7 21 7 22 28 2 16 -17 51 -21 41 -5 -6 10 -138 80 -150 80 -3 0 -5 -5 -5 -11z"/>
<path d="M901 52 c-7 -13 -7 -22 1 -30 18 -18 35 -14 41 8 8 29 -28 47 -42 22z
m16 -24 c-3 -8 -6 -5 -6 6 -1 11 2 17 5 13 3 -3 4 -12 1 -19z"/>
<path d="M563 35 c12 -25 29 -35 25 -13 -2 6 6 14 16 16 14 3 17 0 13 -11 -4
-11 1 -14 19 -13 48 2 19 30 -43 40 -41 6 -41 6 -30 -19z"/>
<path d="M670 25 c0 -8 7 -15 15 -15 9 0 12 6 9 15 -4 8 -10 15 -15 15 -5 0
-9 -7 -9 -15z"/>
<path d="M115 20 c-3 -5 3 -10 15 -10 12 0 18 5 15 10 -3 6 -10 10 -15 10 -5
0 -12 -4 -15 -10z"/>
</g>
</svg>
